HIERARCHY
ROOT Hips
{
  OFFSET 0 89.5177 0.535
  CHANNELS 6 Xposition Yposition Zposition Zrotation Xrotation Yrotation
  JOINT Spine
  {
    OFFSET 12.0259 -0.162855 1.69034e-005
    CHANNELS 3 Zrotation Xrotation Yrotation
    JOINT Spine1
    {
      OFFSET 15.3169 -0.0121922 0
      CHANNELS 3 Zrotation Xrotation Yrotation
      JOINT Spine2
      {
        OFFSET 15.3176 -0.0121908 0
        CHANNELS 3 Zrotation Xrotation Yrotation
        JOINT Neck
        {
          OFFSET 19.9142 1.56338 0
          CHANNELS 3 Zrotation Xrotation Yrotation
          JOINT Head
          {
            OFFSET 6.92651 0 0
            CHANNELS 3 Zrotation Xrotation Yrotation
            End Site
            {
              OFFSET 20.7666 0 0
            }
          }
          JOINT LeftShoulder
          {
            OFFSET -6.20654 0.708824 7.28219
            CHANNELS 3 Zrotation Xrotation Yrotation
            JOINT LeftArm
            {
              OFFSET 14.108 0 -1.52588e-005
              CHANNELS 3 Zrotation Xrotation Yrotation
              JOINT LeftForeArm
              {
                OFFSET 28.5802 0 0
                CHANNELS 3 Zrotation Xrotation Yrotation
                JOINT LeftHand
                {
                  OFFSET 27.092 0 0
                  CHANNELS 3 Zrotation Xrotation Yrotation
                  End Site
                  {
                    OFFSET 9.55928 -0.186424 0.145352
                  }
                }
              }
            }
          }
          JOINT RightShoulder
          {
            OFFSET -6.20654 0.708866 -7.28218
            CHANNELS 3 Zrotation Xrotation Yrotation
            JOINT RightArm
            {
              OFFSET 14.108 0 1.52588e-005
              CHANNELS 3 Zrotation Xrotation Yrotation
              JOINT RightForeArm
              {
                OFFSET 28.5802 0 0
                CHANNELS 3 Zrotation Xrotation Yrotation
                JOINT RightHand
                {
                  OFFSET 27.092 0 0
                  CHANNELS 3 Zrotation Xrotation Yrotation
                  End Site
                  {
                    OFFSET 9.55929 -0.186417 -0.145354
                  }
                }
              }
            }
          }
        }
      }
    }
  }
  JOINT LeftUpLeg
  {
    OFFSET 0.005 -0.535 8.837
    CHANNELS 3 Zrotation Xrotation Yrotation
    JOINT LeftLeg
    {
      OFFSET 39.9035 0 0
      CHANNELS 3 Zrotation Xrotation Yrotation
      JOINT LeftFoot
      {
        OFFSET 39.6689 0 0
        CHANNELS 3 Zrotation Xrotation Yrotation
        JOINT LeftToe
        {
          OFFSET 10.1624 13.6296 0
          CHANNELS 3 Zrotation Xrotation Yrotation
          End Site
          {
            OFFSET 8.38147 0 0
          }
        }
      }
    }
  }
  JOINT RightUpLeg
  {
    OFFSET 0.005 -0.535 -8.837
    CHANNELS 3 Zrotation Xrotation Yrotation
    JOINT RightLeg
    {
      OFFSET 39.9035 0 0
      CHANNELS 3 Zrotation Xrotation Yrotation
      JOINT RightFoot
      {
        OFFSET 39.6689 0 0
        CHANNELS 3 Zrotation Xrotation Yrotation
        JOINT RightToe
        {
          OFFSET 10.1624 13.6296 0
          CHANNELS 3 Zrotation Xrotation Yrotation
          End Site
          {
            OFFSET 8.38147 0 0
          }
        }
      }
    }
  }
}
MOTION
Frames:	11
Frame Time:	0.0333333
504.019 89.6594 -210.692 159.661 -82.0776 69.569 -2.05795 0.219294 -0.569785 -4.11367 0.459357 -1.13115 -4.11367 0.459357 -1.13116 -8.30748e-012 -9.0191e-006 -5.27751e-005 12.9746 14.9146 -3.14821 179.799 -7.00714 -91.6508 -19.8419 -52.4541 1.92689 -2.99638e-006 -3.18055e-015 3.18055e-015 -38.3397 -18.4042 -33.3439 179.816 3.94625 92.6725 47.3937 66.025 -61.1724 -0.191768 4.77083e-015 1.59028e-015 -34.6121 20.9606 28.293 -8.67201 -1.18059 -179.585 -17.3463 -3.97569e-016 -4.96962e-017 21.9059 6.84467 -13.5834 90 1.49089e-015 3.18055e-015 -9.22514 -4.30802 -179.665 -18.6708 -3.97569e-016 -2.48481e-016 15.8551 -2.22529 4.45815 90 -8.33964e-016 -1.98785e-016 
503.989 89.6574 -210.755 159.93 -82.0851 69.8605 -2.06829 0.207446 -0.582487 -4.1344 0.436228 -1.15693 -4.1344 0.436228 -1.15693 -8.30748e-012 -9.0191e-006 -5.27751e-005 13.1452 14.9311 -3.21199 179.792 -7.03958 -91.693 -19.6104 -52.5449 2.0562 -3.01174e-006 0 -0 -38.2131 -18.556 -33.5847 179.813 3.94119 92.7216 47.7883 66.0793 -61.6107 -0.176822 -3.18055e-015 -1.59028e-015 -34.7288 21.0496 28.2616 -8.54127 -1.28252 -179.645 -17.1705 -7.95139e-016 -4.96962e-017 21.8061 6.75856 -13.4801 90 1.88845e-015 1.59028e-015 -9.19838 -4.35357 -179.721 -18.6872 -5.96354e-016 9.93923e-017 15.9501 -2.2789 4.5668 90 -1.13991e-015 -0 
503.963 89.6504 -210.809 160.339 -82.0981 70.2472 -2.07785 0.207754 -0.583371 -4.15346 0.44051 -1.15858 -4.15346 0.44051 -1.15859 -8.30867e-012 -9.0191e-006 -5.27751e-005 13.2274 14.7816 -3.19817 179.797 -7.04107 -91.6536 -19.5515 -52.4313 1.99535 -3.02788e-006 0 -0 -38.0247 -18.5434 -33.3975 179.803 3.98476 92.8286 48.3739 66.1454 -62.2115 -0.18274 3.18055e-015 1.59028e-015 -34.6446 20.7972 28.1079 -8.52651 -1.23569 -179.63 -17.221 -3.97569e-016 -4.96962e-017 21.8717 6.74847 -13.5037 90 1.09332e-015 -7.95139e-016 -9.15391 -4.33573 -179.715 -18.6596 -3.97569e-016 -0 15.9984 -2.30081 4.61143 90 -2.842e-016 -0 
503.94 89.6483 -210.842 160.508 -82.0544 70.4078 -2.08414 0.208525 -0.603969 -4.16602 0.437528 -1.19989 -4.16602 0.437529 -1.1999 -8.30788e-012 -9.0191e-006 -5.27751e-005 13.1249 14.6537 -3.00504 179.785 -7.12065 -91.736 -19.5652 -52.5688 2.06269 -3.04482e-006 3.18055e-015 1.59028e-015 -38.2861 -18.6211 -33.6233 179.809 4.05083 92.6946 47.4886 66.128 -61.3849 -0.25194 0 1.59028e-015 -34.5487 20.8863 28.1501 -8.51417 -1.25954 -179.654 -17.1542 1.98785e-016 -9.93923e-017 21.8771 6.73233 -13.3861 90 1.19271e-015 1.59028e-015 -9.16695 -4.31887 -179.721 -18.6295 1.98785e-016 9.93923e-017 15.9786 -2.29782 4.60535 90 2.01891e-017 -9.93923e-017 
503.913 89.6471 -210.867 160.548 -82.0201 70.4447 -2.08659 0.209528 -0.627407 -4.17093 0.434545 -1.24673 -4.17093 0.434546 -1.24673 -8.30828e-012 -9.0191e-006 -5.27751e-005 12.9667 14.5649 -2.83333 179.776 -7.13816 -91.8008 -19.5789 -52.5488 2.07828 -3.06255e-006 0 1.59028e-015 -38.3034 -18.6414 -33.6691 179.811 4.05505 92.6746 47.0934 66.0471 -60.939 -0.291419 3.18055e-015 1.59028e-015 -34.6252 21.0997 28.2963 -8.5044 -1.31935 -179.68 -17.1046 3.97569e-016 9.93923e-017 21.8599 6.70586 -13.3215 90 9.93923e-017 7.95139e-016 -9.18311 -4.30301 -179.732 -18.6309 3.97569e-016 -2.98177e-016 15.9845 -2.28556 4.5807 90 -4.95409e-016 -0 
503.882 89.6452 -210.89 160.702 -81.9905 70.5972 -2.08632 0.21053 -0.651031 -4.17129 0.437761 -1.29392 -4.17129 0.437761 -1.29393 -8.30788e-012 -9.0191e-006 -5.27751e-005 12.8345 14.6551 -2.6629 179.767 -7.17069 -91.8666 -19.6145 -52.6565 2.05033 -3.0811e-006 0 1.59028e-015 -38.2246 -18.4641 -33.4794 179.81 4.05324 92.6906 47.0693 66.0632 -60.849 -0.237252 -1.59028e-015 -1.59028e-015 -34.74 21.0688 28.3048 -8.53368 -1.2483 -179.693 -17.1354 0 1.98785e-016 21.9327 6.73296 -13.3322 90 -1.78906e-015 7.95139e-016 -9.21275 -4.31251 -179.758 -18.652 3.97569e-016 -2.98177e-016 16.016 -2.30927 4.62863 90 -6.52262e-017 9.93923e-017 
503.853 89.6443 -210.915 160.894 -81.9781 70.7908 -2.08585 0.211301 -0.663303 -4.17145 0.45016 -1.31823 -4.17145 0.45016 -1.31824 -8.30748e-012 -9.0191e-006 -5.27751e-005 12.5253 13.9859 -2.7258 179.767 -7.23633 -91.8508 -19.7162 -52.9505 2.02903 -3.10048e-006 3.18055e-015 3.18055e-015 -38.327 -18.304 -33.4702 179.8 4.09907 92.7973 47.6492 66.1733 -61.3843 -0.253348 1.59028e-015 -0 -34.645 20.8381 28.2566 -8.51627 -1.25821 -179.712 -17.1016 -3.97569e-016 -4.96962e-017 21.9336 6.72524 -13.3087 90 9.93923e-016 -0 -9.20226 -4.32581 -179.785 -18.6221 3.97569e-016 1.98785e-016 16.0414 -2.3372 4.68524 90 -1.89156e-015 -9.93923e-017 
503.824 89.6434 -210.937 161.191 -81.9445 71.0685 -2.08526 0.21161 -0.67175 -4.19092 0.4481 -1.33513 -4.19092 0.4481 -1.33514 -8.30748e-012 -9.0191e-006 -5.27751e-005 12.5171 13.9182 -2.75136 179.765 -7.31964 -91.8437 -19.763 -53.0325 2.02871 -3.12071e-006 -3.18055e-015 1.59028e-015 -38.3168 -18.2631 -33.2869 179.797 4.03468 92.8862 47.6436 66.1057 -61.3015 -0.332298 1.59028e-015 1.59028e-015 -34.671 20.9064 28.1847 -8.52078 -1.26074 -179.723 -17.0665 0 -4.96962e-017 21.9325 6.6956 -13.2313 90 -3.77691e-015 -0 -9.20182 -4.28523 -179.777 -18.5562 5.96354e-016 9.93923e-017 15.9952 -2.3291 4.66874 90 7.95139e-016 9.93923e-017 
503.797 89.6426 -210.967 161.446 -81.9375 71.2944 -2.08467 0.211491 -0.684747 -4.18516 0.448303 -1.36113 -4.18516 0.448304 -1.36114 -8.30828e-012 -9.0191e-006 -5.27751e-005 12.4793 13.9388 -2.82807 179.759 -7.42335 -91.8623 -19.9331 -53.0886 1.9316 -3.14179e-006 3.18055e-015 4.77083e-015 -38.2087 -18.1633 -33.1464 179.793 4.0777 92.9095 47.5492 66.1728 -61.257 -0.338451 -3.18055e-015 -0 -34.6059 20.9853 28.1844 -8.51859 -1.23004 -179.711 -17.0814 0 9.93923e-017 21.9739 6.69922 -13.2158 90 -1.19271e-015 7.95139e-016 -9.17792 -4.20237 -179.752 -18.5086 -7.95139e-016 -9.93923e-017 15.9478 -2.30034 4.61063 90 -1.11195e-015 -0 
503.759 89.642 -210.97 162.03 -81.9481 71.8575 -2.08408 0.22099 -0.69824 -4.18046 0.467761 -1.38777 -4.18046 0.467761 -1.38778 -8.30788e-012 -9.0191e-006 -5.27751e-005 12.4423 13.9148 -2.84168 179.756 -7.51926 -91.864 -20.1301 -53.2001 1.81005 -3.16374e-006 6.36111e-015 1.59028e-015 -38.3023 -18.1552 -33.2346 179.788 4.0782 92.9738 47.6966 66.226 -61.4067 -0.279123 -1.59028e-015 -0 -34.7089 20.98 28.2813 -8.56538 -1.12852 -179.7 -17.1633 -3.97569e-016 -0 22.0189 6.71681 -13.2803 90 1.68967e-015 2.38542e-015 -9.21029 -4.1668 -179.762 -18.5301 1.98785e-016 -0 15.9621 -2.33245 4.67537 90 5.94801e-016 -9.93923e-017 
503.721 89.6422 -210.974 162.508 -81.988 72.3267 -2.0838 0.227423 -0.705755 -4.16469 0.4808 -1.4026 -4.16469 0.4808 -1.40261 -8.30788e-012 -9.0191e-006 -5.27751e-005 12.531 13.9287 -2.98479 179.761 -7.62569 -91.803 -20.2795 -53.3731 1.67647 -3.18657e-006 6.36111e-015 1.59028e-015 -38.241 -18.0774 -33.2275 179.784 4.04569 93.0526 47.7138 66.2355 -61.3959 -0.282741 -4.77083e-015 -0 -34.6143 20.8463 28.1729 -8.52943 -1.11894 -179.72 -17.1463 0 -4.96962e-017 22.0034 6.67953 -13.2226 90 5.96354e-016 -2.38542e-015 -9.21047 -4.11537 -179.776 -18.5499 1.98785e-016 -0 15.9542 -2.34608 4.70266 90 7.00405e-016 -1.98785e-016 
